HIERARCHY
ROOT Hips
{
     OFFSET 13.91960 98.72800 -89.78440
     CHANNELS 6 Xposition Yposition Zposition Zrotation Xrotation Yrotation
     JOINT Spine
     {
          OFFSET -0.00000 11.89050 0.00000
          CHANNELS 3 Zrotation Xrotation Yrotation
          JOINT Spine1
          {
               OFFSET -0.00000 25.65740 0.12766
               CHANNELS 3 Zrotation Xrotation Yrotation
               JOINT HEad
               {
                    OFFSET -0.00000 8.73416 0.01134
                    CHANNELS 3 Zrotation Xrotation Yrotation
                    End Site
                    {
                         OFFSET -0.29000 12.77420 2.51395
                    }
               }
               JOINT LeftShoulder1
               {
                    OFFSET 8.99000 -0.36225 -0.22000
                    CHANNELS 3 Zrotation Xrotation Yrotation
                    JOINT LeftArm
                    {
                         OFFSET 10.28270 -0.00338 0.32212
                         CHANNELS 3 Zrotation Xrotation Yrotation
                         JOINT LeftForeArm
                         {
                              OFFSET 32.76690 0.09914 -1.42434
                              CHANNELS 3 Zrotation Xrotation Yrotation
                              JOINT LeftHand
                              {
                                   OFFSET 27.56430 0.08536 1.02216
                                   CHANNELS 3 Zrotation Xrotation Yrotation
                                   End Site
                                   {
                                        OFFSET 16.74430 -0.60000 1.50291
                                   }
                              }
                         }
                    }
               }
               JOINT RightShoulder
               {
                    OFFSET -8.99000 -0.36225 -0.22000
                    CHANNELS 3 Zrotation Xrotation Yrotation
                    JOINT RightArm
                    {
                         OFFSET -10.28270 -0.00338 0.32212
                         CHANNELS 3 Zrotation Xrotation Yrotation
                         JOINT RightForeArm
                         {
                              OFFSET -32.89710 0.09914 -1.42434
                              CHANNELS 3 Zrotation Xrotation Yrotation
                              JOINT RightHand
                              {
                                   OFFSET -27.49210 0.08536 1.02216
                                   CHANNELS 3 Zrotation Xrotation Yrotation
                                   End Site
                                   {
                                        OFFSET -16.63120 -0.60000 1.50291
                                   }
                              }
                         }
                    }
               }
          }
     }
     JOINT LeftUpLeg
     {
          OFFSET 8.94580 -8.66707 0.10165
          CHANNELS 3 Zrotation Xrotation Yrotation
          JOINT LeftLeg
          {
               OFFSET -0.00000 -44.42270 1.37270
               CHANNELS 3 Zrotation Xrotation Yrotation
               JOINT LeftFoot
               {
                    OFFSET -0.25355 -42.09240 -1.46059
                    CHANNELS 3 Zrotation Xrotation Yrotation
                    JOINT LeftToes
                    {
                         OFFSET -0.04000 -4.41509 8.49910
                         CHANNELS 3 Zrotation Xrotation Yrotation
                         End Site
                         {
                              OFFSET 0.08000 -0.04745 9.77979
                         }
                    }
               }
          }
     }
     JOINT RightUpLeg
     {
          OFFSET -8.94580 -8.66707 0.10165
          CHANNELS 3 Zrotation Xrotation Yrotation
          JOINT RightLeg
          {
               OFFSET 0.00000 -44.42270 1.37270
               CHANNELS 3 Zrotation Xrotation Yrotation
               JOINT RightFoot
               {
                    OFFSET 0.25355 -42.09240 -1.46059
                    CHANNELS 3 Zrotation Xrotation Yrotation
                    JOINT RightToes
                    {
                         OFFSET 0.04000 -4.41509 8.49910
                         CHANNELS 3 Zrotation Xrotation Yrotation
                         End Site
                         {
                              OFFSET -0.08000 -0.13745 9.77979
                         }
                    }
               }
          }
     }
}
MOTION
Frames: 12
Frame Time: 0.01667
19.21460 82.72260 6.30744 -4.48537 -17.68900 -61.86980 -2.30052 10.40410 4.62194 -4.31701 20.63520 9.34554 -16.88670 -0.07035 45.30000 -0.00000 -0.00000 0.00000 -96.51530 -61.93560 -97.05980 -14.71760 21.13520 -74.71750 5.55594 9.67997 -0.87718 -8.09760 0.13296 -1.56338 32.62310 -12.19710 116.24400 -7.02882 -13.78310 63.64160 -5.55712 9.68432 0.87760 18.99040 -18.37980 3.08747 -4.76250 31.90190 -11.28450 -19.85700 9.90809 2.98422 0.71292 -26.15870 -5.69711 -18.60290 -20.88830 -1.36731 -34.87150 73.50400 22.45090 12.03740 -33.16330 2.49455 -3.72038 -5.70491 -0.75486 
19.39130 81.37890 8.59201 -4.42021 -18.35180 -60.39580 -3.18833 10.75520 4.65421 -3.91862 21.20970 8.96636 -16.74740 -0.76563 44.60780 -0.00000 -0.00000 0.00000 -94.47550 -60.32360 -97.33980 -13.79650 18.84240 -73.75660 5.55594 9.67997 -0.87718 -7.65185 0.13605 -1.65725 32.03350 -12.85840 117.22400 -7.58925 -14.42830 62.57180 -5.55712 9.68432 0.87760 18.89640 -20.91470 5.49400 -6.10721 38.16810 -14.01220 -18.39090 5.65600 2.09871 0.71043 -26.03890 -6.61678 -19.70840 -20.18590 0.99087 -39.89740 75.94760 25.23330 14.58200 -33.60470 3.16116 -2.88105 -4.78101 -1.06870 
19.49790 80.31870 10.81240 -4.35829 -18.72610 -58.73780 -3.66945 11.03610 4.62543 -3.51459 21.66590 8.57032 -16.35480 -1.19792 43.80870 -0.00000 -0.00000 0.00000 -92.72250 -58.71790 -97.63820 -13.15770 17.25850 -73.09550 5.55594 9.67997 -0.87718 -6.88016 0.13654 -1.63120 32.10340 -12.98100 117.63000 -7.65861 -14.48140 62.24640 -5.55712 9.68432 0.87760 18.91380 -23.38860 7.79087 -7.02117 44.32430 -16.63180 -17.00460 1.53821 1.34889 0.75471 -24.82230 -7.37193 -20.70670 -19.14410 2.73314 -44.05790 77.75250 27.86330 16.58230 -33.58320 3.64526 -2.17572 -4.05905 -1.43732 
19.54800 79.68020 12.91790 -4.30045 -18.84980 -57.11820 -3.82865 11.22280 4.58271 -3.18069 21.96930 8.26505 -15.78070 -1.31840 42.98030 -0.00000 -0.00000 0.00000 -91.28690 -57.22230 -97.87320 -12.81730 16.45190 -72.76580 5.55594 9.67997 -0.87718 -5.95515 0.13679 -1.50473 32.66670 -12.61740 117.47900 -7.34724 -14.10040 62.52670 -5.55712 9.68432 0.87760 18.80770 -25.39160 9.53459 -7.49553 49.42940 -18.85110 -15.77730 -1.99296 0.78295 0.84118 -22.88840 -7.78512 -21.42730 -17.85300 3.88580 -46.14390 78.68340 28.71130 17.56400 -33.00010 3.78789 -1.50784 -3.45569 -1.93508 
19.57180 79.48880 14.88120 -4.24897 -18.79450 -55.71460 -3.81161 11.32050 4.55801 -2.97152 22.12580 8.12156 -15.11380 -1.17836 42.20870 -0.00000 -0.00000 0.00000 -90.12910 -55.95450 -97.94370 -12.74750 16.36910 -72.75190 5.55594 9.67997 -0.87718 -5.04802 0.13897 -1.31976 33.46870 -11.95140 116.85900 -6.83724 -13.48650 63.14830 -5.55712 9.68432 0.87760 18.44620 -26.78680 10.51850 -7.76791 53.16900 -20.37190 -14.65210 -4.75602 0.38788 0.93471 -20.75750 -7.83962 -21.83500 -16.43620 4.65512 -45.56370 78.77600 26.99360 17.67700 -31.92620 3.63559 -0.82217 -2.86227 -2.47926 
19.59620 79.70200 16.66880 -4.19474 -18.62850 -54.63450 -3.77914 11.34900 4.57866 -2.90450 22.16110 8.15560 -14.43790 -0.89937 41.56300 -0.00000 -0.00000 0.00000 -89.18320 -55.01690 -97.77880 -12.88570 16.85660 -72.99510 5.55594 9.67997 -0.87718 -4.29132 0.14326 -1.12723 34.23560 -11.20200 115.93100 -6.31351 -12.84730 63.81980 -5.55712 9.68432 0.87760 17.81270 -27.55380 10.77390 -8.07504 55.50750 -21.02860 -13.55050 -6.70900 0.13835 1.00051 -18.89990 -7.62247 -21.99410 -15.00470 5.26507 -42.85260 78.15100 23.28230 17.39110 -30.53450 3.34378 -0.12940 -2.22456 -2.93834 
19.63670 80.23580 18.27240 -4.12985 -18.38110 -53.89950 -3.80624 11.32470 4.65026 -2.95064 22.09700 8.33173 -13.81510 -0.62105 41.07830 -0.00000 -0.00000 0.00000 -88.39260 -54.46410 -97.36610 -13.15300 17.70390 -73.40870 5.55594 9.67997 -0.87718 -3.75330 0.14807 -0.97096 34.76500 -10.53310 114.88400 -5.89472 -12.33000 64.33500 -5.55712 9.68432 0.87760 16.98170 -27.77010 10.48920 -8.47724 56.60690 -20.88990 -12.42530 -7.89035 0.00649 1.02614 -17.68790 -7.30555 -22.01920 -13.62200 5.83990 -39.12430 76.94110 18.84220 17.20850 -29.05820 3.06898 0.54094 -1.53560 -3.23640 
19.69650 80.99890 19.70930 -4.05066 -18.04210 -53.45370 -3.87597 11.25200 4.75442 -3.05043 21.94040 8.58353 -13.27820 -0.44754 40.75280 -0.00000 -0.00000 0.00000 -87.72950 -54.28610 -96.75580 -13.47440 18.69600 -73.89690 5.55594 9.67997 -0.87718 -3.42879 0.15171 -0.87401 34.99070 -10.01800 113.87200 -5.60233 -11.96770 64.63820 -5.55712 9.68432 0.87760 16.07010 -27.57210 9.91405 -8.85234 56.71790 -20.23810 -11.29930 -8.37299 -0.03642 1.02280 -17.33710 -7.09035 -22.02260 -12.30660 6.37893 -35.22570 75.26820 14.64500 17.45120 -27.70280 2.89956 1.17022 -0.81846 -3.38402 
19.77070 81.91220 21.00140 -3.95746 -17.58000 -53.18890 -3.91260 11.12510 4.85094 -3.13651 21.68490 8.83817 -12.83650 -0.41842 40.55840 -0.00000 -0.00000 0.00000 -87.20510 -54.41730 -96.05140 -13.79410 19.65950 -74.37380 5.55594 9.67997 -0.87718 -3.25285 0.15374 -0.83344 34.98580 -9.65398 112.97600 -5.37959 -11.68720 64.81090 -5.55712 9.68432 0.87760 15.19750 -27.11620 9.28102 -9.01470 56.09970 -19.45260 -10.26540 -8.28173 -0.02211 1.00803 -17.79540 -7.10892 -22.07070 -11.05440 6.80435 -31.50850 73.23610 11.06080 18.19160 -26.57130 2.84896 1.74434 -0.12028 -3.44260 
19.85140 82.92740 22.16880 -3.84676 -16.96930 -52.99520 -3.86296 10.93880 4.90907 -3.16159 21.32370 9.03661 -12.48570 -0.51253 40.45610 -0.00000 -0.00000 0.00000 -86.87090 -54.76580 -95.39170 -14.08150 20.48780 -74.77780 5.55594 9.67997 -0.87718 -3.13704 0.15482 -0.82698 34.90210 -9.39646 112.21300 -5.14474 -11.37820 64.99660 -5.55712 9.68432 0.87760 14.43880 -26.52760 8.74470 -8.83499 54.95510 -18.85560 -9.44091 -7.81240 0.01871 0.99073 -18.73000 -7.35951 -22.18760 -9.85450 7.04312 -27.97240 70.91050 8.01595 19.30580 -25.64400 2.88134 2.24944 0.50723 -3.47497 
19.93230 84.02280 23.22730 -3.71253 -16.20610 -52.79800 -3.72535 10.69610 4.92066 -3.10958 20.86010 9.14478 -12.21800 -0.67514 40.40960 -0.00000 -0.00000 0.00000 -86.80800 -55.24260 -94.93120 -14.32880 21.14370 -75.07950 5.55594 9.67997 -0.87718 -3.01122 0.15585 -0.82878 34.89280 -9.18948 111.57500 -4.84324 -10.96600 65.31110 -5.55712 9.68432 0.87760 13.80940 -25.88050 8.35496 -8.29531 53.41000 -18.61290 -8.90546 -7.19213 0.06437 0.97417 -19.68640 -7.72311 -22.36820 -8.69858 7.07991 -24.52160 68.32390 5.30114 20.59200 -24.82050 2.94194 2.68088 1.03422 -3.52101 
20.01160 85.17890 24.17960 -3.55629 -15.30630 -52.56030 -3.50469 10.40450 4.88012 -2.98470 20.30890 9.15552 -12.02750 -0.84835 40.39170 -0.00000 -0.00000 0.00000 -87.10750 -55.77970 -94.81520 -14.54430 21.64430 -75.28150 5.55594 9.67997 -0.87718 -2.85163 0.15726 -0.82510 35.05940 -8.98592 111.05900 -4.47119 -10.44490 65.79110 -5.55712 9.68432 0.87760 13.29500 -25.21690 8.07041 -7.48273 51.54580 -18.71960 -8.66095 -6.60570 0.10450 0.96389 -20.29910 -8.03522 -22.57970 -7.59103 6.95509 -21.14260 65.51900 2.79065 21.87830 -23.98660 2.98148 3.04682 1.46005 -3.59694 
